<svg width="20" height="18" viewBox="0 0 20 18" fill="none" xmlns="http://www.w3.org/2000/svg">
<path d="M18.125 16.7137H1.875C0.8375 16.7137 0 15.8523 0 14.7852V3.21373C0 2.14658 0.8375 1.28516 1.875 1.28516H18.125C19.1625 1.28516 20 2.14658 20 3.21373V14.7852C20 15.8523 19.1625 16.7137 18.125 16.7137ZM1.875 2.57087C1.525 2.57087 1.25 2.85373 1.25 3.21373V14.7852C1.25 15.1452 1.525 15.428 1.875 15.428H18.125C18.475 15.428 18.75 15.1452 18.75 14.7852V3.21373C18.75 2.85373 18.475 2.57087 18.125 2.57087H1.875Z" fill="#888888"/>
<path d="M9.99978 11.5205C9.12478 11.5205 8.32478 11.1605 7.72478 10.5048L1.16228 3.3305C0.924782 3.07336 0.937282 2.66193 1.18728 2.41764C1.43728 2.17336 1.83728 2.18622 2.07478 2.44336L8.63728 9.61764C9.34978 10.4019 10.6498 10.4019 11.3623 9.61764L17.9248 2.45622C18.1623 2.19907 18.5623 2.18622 18.8123 2.4305C19.0623 2.67479 19.0748 3.08622 18.8373 3.34336L12.2748 10.5176C11.6748 11.1734 10.8748 11.5334 9.99978 11.5334V11.5205Z" fill="#888888"/>
</svg>
