<svg width="27" height="27" viewBox="0 0 27 27" fill="none" xmlns="http://www.w3.org/2000/svg">
<path d="M11.7969 18.8213C11.4987 18.8215 11.2126 18.7034 11.0015 18.4928L6.22926 13.7194C6.12174 13.6157 6.03595 13.4917 5.9769 13.3544C5.91784 13.2172 5.88671 13.0696 5.8853 12.9203C5.8839 12.7709 5.91226 12.6227 5.96873 12.4844C6.0252 12.3461 6.10864 12.2205 6.2142 12.1148C6.31975 12.0091 6.4453 11.9254 6.58351 11.8688C6.72173 11.8121 6.86985 11.7835 7.01923 11.7847C7.1686 11.7859 7.31625 11.8169 7.45354 11.8757C7.59084 11.9346 7.71503 12.0202 7.81889 12.1276L11.7958 16.1044L18.9564 8.94606C19.1673 8.73497 19.4535 8.61632 19.7519 8.61621C20.0504 8.61611 20.3366 8.73455 20.5477 8.9455C20.7588 9.15645 20.8774 9.44261 20.8776 9.74104C20.8777 10.0395 20.7592 10.3257 20.5483 10.5368L12.5923 18.4928C12.3812 18.7034 12.0951 18.8215 11.7969 18.8213Z" fill="white"/>
</svg>
