<svg width="18" height="24" viewBox="0 0 18 24" fill="none" xmlns="http://www.w3.org/2000/svg">
<path d="M3.42113 13.6406H0.0249023V17.0363H3.42113V13.6406Z" fill="#D8D8D8" stroke="#D8D8D8" stroke-width="0.05" stroke-miterlimit="10"/>
<path d="M2.9261 2.92533C3.23354 2.61794 3.42569 2.19529 3.42569 1.72461V3.42482H1.72998C2.20074 3.42482 2.62347 3.23271 2.93091 2.92533H2.9261Z" fill="#D8D8D8" stroke="#D8D8D8" stroke-width="0.05" stroke-miterlimit="10"/>
<path d="M1.72542 3.43058H3.42113V6.82621H0.0249023V5.126C0.0249023 4.65532 0.217051 4.23266 0.524488 3.92528C0.831926 3.6179 1.25465 3.42578 1.72542 3.42578V3.43058Z" fill="#D8D8D8" stroke="#D8D8D8" stroke-width="0.05" stroke-miterlimit="10"/>
<path d="M15.3197 3.43068H13.6191V1.73047C13.6191 2.66703 14.3781 3.43068 15.3197 3.43068Z" fill="#D8D8D8" stroke="#D8D8D8" stroke-width="0.05" stroke-miterlimit="10"/>
<path d="M11.9189 3.43058H13.6195V5.126C13.6195 4.65532 13.4273 4.23266 13.1199 3.92528C12.8124 3.6179 12.3897 3.42578 11.9189 3.42578V3.43058Z" fill="#D8D8D8" stroke="#D8D8D8" stroke-width="0.05" stroke-miterlimit="10"/>
<path d="M13.12 0.524889C13.4274 0.832272 13.6196 1.25492 13.6196 1.72561V3.42582H10.2234V3.43543H6.82715V0.0349964H10.2234V0.0253906H11.9239C12.3947 0.0253906 12.8174 0.217505 13.1248 0.524889H13.12Z" fill="#D8D8D8" stroke="#D8D8D8" stroke-width="0.05" stroke-miterlimit="10"/>
<path d="M13.6191 10.2461H15.3197C14.8489 10.2461 14.4262 10.4382 14.1187 10.7456C13.8113 11.053 13.6191 11.4756 13.6191 11.9463V10.2509V10.2461Z" fill="#D8D8D8" stroke="#D8D8D8" stroke-width="0.05" stroke-miterlimit="10"/>
<path d="M17.0202 6.8457V8.54112C17.0202 9.0118 16.828 9.43445 16.5206 9.74183C16.2131 10.0492 15.7904 10.2413 15.3197 10.2413H13.6191V6.8457H17.0154H17.0202Z" fill="#D8D8D8" stroke="#D8D8D8" stroke-width="0.05" stroke-miterlimit="10"/>
<path d="M13.1199 9.73197C13.4273 9.42458 13.6195 9.00193 13.6195 8.53125V10.2315H11.9189C12.3897 10.2315 12.8124 10.0394 13.1199 9.73197Z" fill="#D8D8D8" stroke="#D8D8D8" stroke-width="0.05" stroke-miterlimit="10"/>
<path d="M6.82201 10.2402H3.42578V13.6359H6.82201V10.2402Z" fill="#D8D8D8" stroke="#D8D8D8" stroke-width="0.05" stroke-miterlimit="10"/>
<path d="M3.42113 10.2402H0.0249023V13.6359H3.42113V10.2402Z" fill="#D8D8D8" stroke="#D8D8D8" stroke-width="0.05" stroke-miterlimit="10"/>
<path d="M10.2234 10.2402H13.6196V13.6359H10.2234V13.6407H6.82715V10.245H10.2234V10.2402Z" fill="#D8D8D8" stroke="#D8D8D8" stroke-width="0.05" stroke-miterlimit="10"/>
<path d="M11.9189 13.6406H13.6195V15.3408C13.6195 14.8702 13.4273 14.4475 13.1199 14.1401C12.8124 13.8327 12.3897 13.6406 11.9189 13.6406Z" fill="#D8D8D8" stroke="#D8D8D8" stroke-width="0.05" stroke-miterlimit="10"/>
<path d="M13.6191 20.4727H15.3197C14.8489 20.4727 14.4262 20.6648 14.1187 20.9722C13.8113 21.2795 13.6191 21.7022 13.6191 22.1729V20.4727Z" fill="#D8D8D8" stroke="#D8D8D8" stroke-width="0.05" stroke-miterlimit="10"/>
<path d="M13.1199 19.9488C13.4273 19.6414 13.6195 19.2187 13.6195 18.748V20.4435H11.9189C12.3897 20.4435 12.8124 20.2513 13.1199 19.944V19.9488Z" fill="#D8D8D8" stroke="#D8D8D8" stroke-width="0.05" stroke-miterlimit="10"/>
<path d="M13.6195 20.4629V22.1631C13.6195 22.6338 13.4274 23.0564 13.1199 23.3638C12.8125 23.6712 12.3898 23.8633 11.919 23.8633H10.2185V23.8729H6.82227V20.4773H10.2185V20.4677H13.6147L13.6195 20.4629Z" fill="#D8D8D8" stroke="#D8D8D8" stroke-width="0.05" stroke-miterlimit="10"/>
<path d="M17.0202 17.0566V18.7569C17.0202 19.2275 16.828 19.6502 16.5206 19.9576C16.2131 20.265 15.7904 20.4571 15.3197 20.4571H13.6191V17.0614H17.0154L17.0202 17.0566Z" fill="#D8D8D8" stroke="#D8D8D8" stroke-width="0.05" stroke-miterlimit="10"/>
<path d="M17.0202 15.3506V17.046H13.624V13.6504H15.3245C15.7953 13.6504 16.218 13.8425 16.5255 14.1499C16.8329 14.4573 17.0251 14.8799 17.0251 15.3506H17.0202Z" fill="#D8D8D8" stroke="#D8D8D8" stroke-width="0.05" stroke-miterlimit="10"/>
<path d="M15.3197 13.6416H13.6191V11.9414C13.6191 12.878 14.3781 13.6416 15.3197 13.6416Z" fill="#D8D8D8" stroke="#D8D8D8" stroke-width="0.05" stroke-miterlimit="10"/>
<path d="M17.0202 5.13487V6.83508H13.624V3.43945H15.3245C15.7953 3.43945 16.218 3.63157 16.5255 3.93895C16.8329 4.24633 17.0251 4.66899 17.0251 5.13967L17.0202 5.13487Z" fill="#D8D8D8" stroke="#D8D8D8" stroke-width="0.05" stroke-miterlimit="10"/>
<path d="M5.1263 0.0253906H6.82201V3.42102H3.42578V1.7208C3.42578 1.25012 3.61793 0.827469 3.92537 0.520086C4.23281 0.217505 4.65553 0.0253906 5.1263 0.0253906Z" fill="#D8D8D8" stroke="#D8D8D8" stroke-width="0.05" stroke-miterlimit="10"/>
<path d="M3.42578 3.43164H5.1263C4.65553 3.43164 4.23281 3.62376 3.92537 3.93114C3.61793 4.23852 3.42578 4.66117 3.42578 5.13186V3.43644V3.43164Z" fill="#D8D8D8" stroke="#D8D8D8" stroke-width="0.05" stroke-miterlimit="10"/>
<path d="M3.42113 6.83594H0.0249023V10.2316H3.42113V6.83594Z" fill="#D8D8D8" stroke="#D8D8D8" stroke-width="0.05" stroke-miterlimit="10"/>
<path d="M6.82201 20.4629V23.8585H5.1263C4.18957 23.8585 3.42578 23.0997 3.42578 22.1631V20.4629H6.82201Z" fill="#D8D8D8" stroke="#D8D8D8" stroke-width="0.05" stroke-miterlimit="10"/>
<path d="M1.72551 20.4629H3.42122V22.1631C3.42122 21.6924 3.22907 21.2698 2.92163 20.9624C2.61419 20.655 2.19147 20.4629 1.7207 20.4629H1.72551Z" fill="#D8D8D8" stroke="#D8D8D8" stroke-width="0.05" stroke-miterlimit="10"/>
<path d="M5.1263 20.4435H3.42578V18.748C3.42578 19.6846 4.18477 20.4435 5.1263 20.4435Z" fill="#D8D8D8" stroke="#D8D8D8" stroke-width="0.05" stroke-miterlimit="10"/>
<path d="M0.0249023 17.0469H3.42113V20.4425H1.72542C0.788693 20.4425 0.0249023 19.6836 0.0249023 18.7471V17.0469Z" fill="#D8D8D8" stroke="#D8D8D8" stroke-width="0.05" stroke-miterlimit="10"/>
</svg>
