<svg width="40" height="40" viewBox="0 0 40 40" fill="none" xmlns="http://www.w3.org/2000/svg">
<path d="M9.16684 23.333C8.93017 23.333 8.7324 23.253 8.57351 23.093C8.41462 22.933 8.33462 22.7347 8.33351 22.498C8.3324 22.2613 8.4124 22.0636 8.57351 21.9047C8.73462 21.7458 8.9324 21.6663 9.16684 21.6663H19.1668C19.4035 21.6663 19.6013 21.7463 19.7602 21.9063C19.9191 22.0663 19.9991 22.2647 20.0002 22.5013C20.0013 22.738 19.9213 22.9358 19.7602 23.0947C19.5991 23.2536 19.4013 23.333 19.1668 23.333H9.16684ZM9.16684 16.6663C8.93017 16.6663 8.7324 16.5863 8.57351 16.4263C8.41462 16.2663 8.33462 16.068 8.33351 15.8313C8.3324 15.5947 8.4124 15.3969 8.57351 15.238C8.73462 15.0791 8.9324 14.9997 9.16684 14.9997H25.8335C26.0702 14.9997 26.268 15.0797 26.4268 15.2397C26.5857 15.3997 26.6657 15.598 26.6668 15.8347C26.6679 16.0713 26.5879 16.2691 26.4268 16.428C26.2657 16.5869 26.0679 16.6663 25.8335 16.6663H9.16684ZM9.16684 9.99967C8.93017 9.99967 8.7324 9.91967 8.57351 9.75967C8.41462 9.59967 8.33462 9.40134 8.33351 9.16467C8.3324 8.92801 8.4124 8.73023 8.57351 8.57134C8.73462 8.41245 8.9324 8.33301 9.16684 8.33301H25.8335C26.0702 8.33301 26.268 8.41301 26.4268 8.57301C26.5857 8.73301 26.6657 8.93134 26.6668 9.16801C26.6679 9.40467 26.5879 9.60245 26.4268 9.76134C26.2657 9.92023 26.0679 9.99967 25.8335 9.99967H9.16684ZM22.0502 30.3197V28.533C22.0502 28.363 22.0818 28.1986 22.1452 28.0397C22.2063 27.8797 22.3096 27.7269 22.4552 27.5813L30.9385 19.1397C31.1041 18.9752 31.2741 18.8641 31.4485 18.8063C31.6241 18.7486 31.7991 18.7197 31.9735 18.7197C32.1646 18.7197 32.3524 18.7552 32.5368 18.8263C32.7213 18.8986 32.8885 19.0063 33.0385 19.1497L34.5802 20.723C34.7168 20.8875 34.8213 21.0586 34.8935 21.2363C34.9646 21.413 35.0002 21.5902 35.0002 21.768C35.0002 21.9458 34.9663 22.1247 34.8985 22.3047C34.8307 22.4847 34.7246 22.6569 34.5802 22.8213L26.1385 31.2647C25.9929 31.4091 25.8402 31.5125 25.6802 31.5747C25.5213 31.6369 25.3563 31.668 25.1852 31.668H23.3968C23.0157 31.668 22.6963 31.5391 22.4385 31.2813C22.1807 31.0236 22.0518 30.7036 22.0518 30.3213M23.5252 30.193H25.1085L30.8885 24.4047L30.1052 23.613L29.3468 22.7997L23.5252 28.6097V30.193ZM30.1052 23.613L29.3468 22.7997L30.8885 24.4047L30.1052 23.613Z" fill="#999999"/>
</svg>
