<svg width="16" height="16" viewBox="0 0 16 16" fill="none" xmlns="http://www.w3.org/2000/svg">
<path d="M8.66679 14.0009H14.0001M14.1161 4.54224C14.2906 4.36776 14.4291 4.16061 14.5236 3.93262C14.618 3.70463 14.6667 3.46026 14.6667 3.21347C14.6667 2.96669 14.6182 2.72231 14.5237 2.4943C14.4293 2.26628 14.2909 2.0591 14.1165 1.88457C13.942 1.71005 13.7348 1.57159 13.5068 1.47712C13.2788 1.38265 13.0345 1.33402 12.7877 1.33398C12.5409 1.33395 12.2965 1.38253 12.0685 1.47694C11.8405 1.57136 11.6333 1.70976 11.4588 1.88424L2.56145 10.7836C2.40667 10.9379 2.29219 11.1279 2.22812 11.3369L1.34745 14.2382C1.33022 14.2959 1.32892 14.3571 1.34369 14.4155C1.35845 14.4738 1.38873 14.5271 1.43132 14.5696C1.4739 14.6121 1.5272 14.6423 1.58556 14.657C1.64392 14.6716 1.70516 14.6702 1.76279 14.6529L4.66479 13.7729C4.87357 13.7094 5.06357 13.5956 5.21812 13.4416L14.1161 4.54224Z" stroke="#888888" stroke-width="0.833333" stroke-linecap="round" stroke-linejoin="round"/>
</svg>
