<svg width="22" height="20" viewBox="0 0 22 20" fill="none" xmlns="http://www.w3.org/2000/svg">
<path d="M17.0451 15.9798C17.631 15.9798 18.1328 15.7713 18.5504 15.3545C18.968 14.9376 19.1765 14.4358 19.1758 13.8492C19.175 13.2625 18.9666 12.7611 18.5504 12.3449C18.1342 11.9287 17.6325 11.7199 17.0451 11.7185C16.4578 11.7171 15.9564 11.9259 15.5409 12.3449C15.1254 12.7639 14.9166 13.2654 14.9145 13.8492C14.9123 14.4329 15.1211 14.9347 15.5409 15.3545C15.9606 15.7742 16.462 15.9826 17.0451 15.9798ZM16.832 19.1758C16.5835 19.1758 16.3661 19.0959 16.1801 18.9361C15.994 18.7763 15.874 18.5721 15.82 18.3235L15.6602 17.5778C15.4471 17.489 15.2476 17.396 15.0615 17.2987C14.8754 17.2014 14.6844 17.0813 14.4883 16.9386L13.716 17.1783C13.4852 17.2493 13.259 17.2404 13.0374 17.1516C12.8158 17.0629 12.6425 16.9208 12.5175 16.7255L12.3044 16.3527C12.1802 16.1396 12.1358 15.9088 12.1713 15.6602C12.2068 15.4116 12.3222 15.2074 12.5175 15.0476L13.1034 14.5416C13.0679 14.3285 13.0502 14.0977 13.0502 13.8492C13.0502 13.6006 13.0679 13.3698 13.1034 13.1567L12.5175 12.6507C12.3222 12.4909 12.2068 12.2913 12.1713 12.052C12.1358 11.8126 12.1802 11.5861 12.3044 11.3723L12.5441 10.9728C12.6684 10.7775 12.8371 10.6354 13.0502 10.5467C13.2632 10.4579 13.4852 10.449 13.716 10.52L14.4883 10.7597C14.6837 10.6177 14.8747 10.498 15.0615 10.4007C15.2483 10.3034 15.4478 10.21 15.6602 10.1205L15.82 9.34818C15.8733 9.0996 15.9929 8.90003 16.179 8.74947C16.3651 8.5989 16.5828 8.52327 16.832 8.52256H17.2582C17.5068 8.52256 17.7244 8.60246 17.9112 8.76225C18.098 8.92205 18.2177 9.12624 18.2702 9.37481L18.43 10.1205C18.6431 10.2093 18.8427 10.3024 19.0287 10.3996C19.2148 10.4969 19.4059 10.617 19.6019 10.7597L20.3742 10.52C20.6051 10.449 20.8316 10.4579 21.0539 10.5467C21.2762 10.6354 21.4491 10.7775 21.5727 10.9728L21.7858 11.3457C21.9101 11.5587 21.9545 11.7895 21.919 12.0381C21.8834 12.2867 21.768 12.4909 21.5727 12.6507L20.9868 13.1567C21.0223 13.3698 21.0401 13.6006 21.0401 13.8492C21.0401 14.0977 21.0223 14.3285 20.9868 14.5416L21.5727 15.0476C21.768 15.2074 21.8834 15.4074 21.919 15.6474C21.9545 15.8875 21.9101 16.1137 21.7858 16.326L21.5461 16.7255C21.4218 16.9208 21.2531 17.0629 21.0401 17.1516C20.827 17.2404 20.6051 17.2493 20.3742 17.1783L19.6019 16.9386C19.4066 17.0806 19.2159 17.2003 19.0298 17.2976C18.8437 17.3949 18.6438 17.4883 18.43 17.5778L18.2702 18.3501C18.217 18.5987 18.0973 18.7986 17.9112 18.9499C17.7251 19.1012 17.5075 19.1765 17.2582 19.1758H16.832ZM2.13064 14.9145V2.13064V6.71151V6.39192V14.9145ZM2.13064 17.0451C1.54471 17.0451 1.0433 16.8367 0.626408 16.4198C0.209513 16.0029 0.000710213 15.5011 0 14.9145V2.13064C0 1.54471 0.208803 1.0433 0.626408 0.626408C1.04401 0.209513 1.54542 0.000710213 2.13064 0H7.64367C7.92775 0 8.1987 0.0532661 8.45651 0.159798C8.71431 0.26633 8.94052 0.41725 9.13511 0.612559L10.6532 2.13064H19.1758C19.7617 2.13064 20.2634 2.33944 20.681 2.75705C21.0987 3.17465 21.3071 3.67606 21.3064 4.26128V6.39192C21.3064 6.69376 21.2041 6.94695 20.9996 7.15149C20.795 7.35603 20.5422 7.45795 20.2411 7.45724C19.9399 7.45653 19.6871 7.35426 19.4826 7.15042C19.278 6.94659 19.1758 6.69376 19.1758 6.39192V4.26128H9.77431L7.64367 2.13064H2.13064V14.9145H9.58788C9.88972 14.9145 10.1429 15.0167 10.3474 15.2213C10.552 15.4258 10.6539 15.6787 10.6532 15.9798C10.6525 16.2809 10.5502 16.5341 10.3464 16.7394C10.1426 16.9446 9.88972 17.0465 9.58788 17.0451H2.13064Z" fill="black"/>
</svg>
