<svg width="81" height="81" viewBox="0 0 81 81" fill="none" xmlns="http://www.w3.org/2000/svg">
<path d="M13.899 13.8715C15.3454 12.428 16.2407 10.4324 16.2407 8.22803V16.2084H8.24414C10.4529 16.2084 12.4526 15.3149 13.899 13.8715Z" fill="#D8D8D8" stroke="#D8D8D8" stroke-width="0.5" stroke-miterlimit="10"/>
<path d="M24.2507 48.2079H16.2563V40.2275C16.2563 44.6362 19.8353 48.2079 24.2507 48.2079Z" fill="#D8D8D8" stroke="#D8D8D8" stroke-width="0.5" stroke-miterlimit="10"/>
<path d="M64.2444 24.2277V32.2081H48.2534V24.2277C48.2425 22.0408 47.3494 20.0625 45.9117 18.6278C44.4632 17.1843 42.4656 16.2908 40.2568 16.2908H48.2534V16.2495H56.2478C58.4566 16.2495 60.4563 17.143 61.9027 18.5865C63.3491 20.0299 64.2444 22.0256 64.2444 24.2277Z" fill="#D8D8D8" stroke="#D8D8D8" stroke-width="0.5" stroke-miterlimit="10"/>
<path d="M48.2532 16.2088V16.2501H32.2622V0.291504H40.2566C42.4654 0.291504 44.4629 1.18498 45.9115 2.62844C47.3492 4.06322 48.2423 6.04147 48.2532 8.22841V8.26971C48.275 12.6588 51.8452 16.2088 56.2476 16.2088H48.2532Z" fill="#D8D8D8" stroke="#D8D8D8" stroke-width="0.5" stroke-miterlimit="10"/>
<path d="M0.25 32.2505H16.241V48.2091H8.2444C3.82896 48.2091 0.25 44.6374 0.25 40.2287V32.2505Z" fill="#D8D8D8" stroke="#D8D8D8" stroke-width="0.5" stroke-miterlimit="10"/>
<path d="M32.2473 48.249V64.2076H24.2507C19.8353 64.2076 16.2563 60.6359 16.2563 56.2294V48.249H32.2473Z" fill="#D8D8D8" stroke="#D8D8D8" stroke-width="0.5" stroke-miterlimit="10"/>
<path d="M8.24414 48.249H16.2407V56.2294C16.2407 54.0251 15.3454 52.0294 13.899 50.586C12.4526 49.1425 10.4529 48.249 8.24414 48.249Z" fill="#D8D8D8" stroke="#D8D8D8" stroke-width="0.5" stroke-miterlimit="10"/>
<path d="M16.241 16.2495V32.2081H0.25V24.2277C0.25 22.0256 1.14529 20.0299 2.59168 18.5865C4.03808 17.143 6.03559 16.2495 8.2444 16.2495H16.241Z" fill="#D8D8D8" stroke="#D8D8D8" stroke-width="0.5" stroke-miterlimit="10"/>
<path d="M32.2473 0.25V16.2086H16.2563V8.22821C16.2563 6.02605 17.1516 4.03041 18.598 2.58694C20.0444 1.14347 22.0419 0.25 24.2507 0.25H32.2473Z" fill="#D8D8D8" stroke="#D8D8D8" stroke-width="0.5" stroke-miterlimit="10"/>
<path d="M16.2563 16.2495H24.2507C22.0419 16.2495 20.0444 17.143 18.598 18.5865C17.1516 20.0299 16.2563 22.0256 16.2563 24.2277V16.2495Z" fill="#D8D8D8" stroke="#D8D8D8" stroke-width="0.5" stroke-miterlimit="10"/>
<path d="M61.902 50.5865C63.3484 52.0299 64.2437 54.0256 64.2437 56.2299V64.2081H56.2471C51.8447 64.2081 48.2745 60.6581 48.2527 56.269C48.2527 58.4734 47.3574 60.469 45.911 61.9125C44.4624 63.3559 42.4649 64.2494 40.2561 64.2494H32.2617V48.2908H48.2527V48.2495H56.2471C58.4559 48.2495 60.4556 49.143 61.902 50.5865Z" fill="#D8D8D8" stroke="#D8D8D8" stroke-width="0.5" stroke-miterlimit="10"/>
<path d="M72.2532 64.2504H64.2588V56.27C64.2588 60.6787 67.8378 64.2504 72.2532 64.2504Z" fill="#D8D8D8" stroke="#D8D8D8" stroke-width="0.5" stroke-miterlimit="10"/>
<path d="M56.2471 64.2505H64.2436V72.2309C64.2436 70.0265 63.3484 68.0309 61.902 66.5874C60.4556 65.144 58.4559 64.2505 56.2471 64.2505Z" fill="#D8D8D8" stroke="#D8D8D8" stroke-width="0.5" stroke-miterlimit="10"/>
<path d="M80.2498 72.2719C80.2498 74.474 79.3545 76.4697 77.9081 77.9131C76.4617 79.3566 74.462 80.2501 72.2532 80.2501C67.8378 80.2501 64.2588 76.6784 64.2588 72.2719V64.2915H72.2532C74.462 64.2915 76.4617 65.185 77.9081 66.6284C79.3545 68.0719 80.2498 70.0675 80.2498 72.2719Z" fill="#D8D8D8" stroke="#D8D8D8" stroke-width="0.5" stroke-miterlimit="10"/>
<path d="M48.2529 48.2096V48.2509H40.2563C42.4652 48.2509 44.4627 47.3574 45.9112 45.9139C47.3576 44.4705 48.2529 42.4748 48.2529 40.2705V32.251H64.2439V40.2292C64.2439 42.4335 63.3486 44.4291 61.9022 45.8726C60.4558 47.3161 58.4561 48.2096 56.2473 48.2096H48.2529Z" fill="#D8D8D8" stroke="#D8D8D8" stroke-width="0.5" stroke-miterlimit="10"/>
</svg>
