<svg width="14" height="23" viewBox="0 0 14 23" fill="none" xmlns="http://www.w3.org/2000/svg">
<path d="M11.0732 1.38416C11.4403 1.38416 11.7924 1.52999 12.052 1.78956C12.3116 2.04914 12.4574 2.40121 12.4574 2.76831V19.3782C12.4574 19.7453 12.3116 20.0973 12.052 20.3569C11.7924 20.6165 11.4403 20.7623 11.0732 20.7623H2.76831C2.40121 20.7623 2.04914 20.6165 1.78957 20.3569C1.52999 20.0973 1.38416 19.7453 1.38416 19.3782V2.76831C1.38416 2.40121 1.52999 2.04914 1.78957 1.78956C2.04914 1.52999 2.40121 1.38416 2.76831 1.38416H11.0732ZM2.76831 0C2.03411 0 1.32998 0.291661 0.810819 0.810819C0.29166 1.32998 0 2.03411 0 2.76831V19.3782C0 20.1124 0.29166 20.8165 0.810819 21.3357C1.32998 21.8548 2.03411 22.1465 2.76831 22.1465H11.0732C11.8074 22.1465 12.5116 21.8548 13.0307 21.3357C13.5499 20.8165 13.8416 20.1124 13.8416 19.3782V2.76831C13.8416 2.03411 13.5499 1.32998 13.0307 0.810819C12.5116 0.291661 11.8074 0 11.0732 0L2.76831 0Z" fill="#888888"/>
<path d="M6.92078 19.3777C7.28788 19.3777 7.63994 19.2319 7.89952 18.9723C8.1591 18.7127 8.30493 18.3606 8.30493 17.9935C8.30493 17.6264 8.1591 17.2744 7.89952 17.0148C7.63994 16.7552 7.28788 16.6094 6.92078 16.6094C6.55368 16.6094 6.20161 16.7552 5.94203 17.0148C5.68245 17.2744 5.53662 17.6264 5.53662 17.9935C5.53662 18.3606 5.68245 18.7127 5.94203 18.9723C6.20161 19.2319 6.55368 19.3777 6.92078 19.3777Z" fill="#888888"/>
</svg>
